<svg xmlns="http://www.w3.org/2000/svg" width="193" height="41" viewBox="0 0 193 41">
    <path d="M56 13.8C56 13.5 56.2 13.3 56.5 13.3L56.9 13.3C57.1 13.3 57.3 13.5 57.3 13.7L57.4 15.1C57.8 14.6 59.1 13 61.7 13 62.8 13 63.6 13.3 63.8 13.4 64.1 13.5 64.3 13.8 64.2 14L63.9 14.7C63.8 15 63.6 15 63.4 14.9 63.2 14.8 62.5 14.5 61.6 14.5 58.9 14.5 57.6 16.6 57.5 16.8L57.5 26.6C57.5 26.9 57.4 27.1 57.1 27.1L56.4 27.1C56.2 27.1 56 26.9 56 26.6L56 13.8ZM89.8 14.7L88.2 14.7C87.8 14.7 87.8 14.5 87.8 14.2L87.8 13.7C87.8 13.4 87.9 13.3 88.2 13.3L89.8 13.3 89.8 9.6C89.8 9.3 90 9.2 90.2 9.2L90.8 9.1C91.1 9.1 91.3 9.3 91.3 9.6L91.3 13.3 96 13.3C96.3 13.3 96.5 13.5 96.5 13.8L96.5 14.2C96.5 14.5 96.3 14.7 96 14.7L91.3 14.7 91.3 23.4C91.3 25 91.4 25.9 93.1 25.9 94.3 25.9 95.7 25.3 96.2 25 96.5 24.8 96.6 25 96.7 25.1L97 25.5C97.1 25.8 97.1 26 96.9 26.1 96.3 26.5 94.8 27.4 92.9 27.4 90 27.4 89.8 25.7 89.8 23.5L89.8 14.7ZM108.8 18.2C110.3 18.2 111.8 18.7 112.2 18.8 112.2 15.8 111.9 14.3 109.2 14.3 106.9 14.3 105.4 15.1 105.1 15.2 104.8 15.3 104.6 15.2 104.6 15L104.4 14.5C104.3 14.2 104.4 14.1 104.6 14 104.7 14 106.5 13 109.3 13 113.5 13 113.7 15.5 113.7 19L113.7 26.6C113.7 26.9 113.5 27.1 113.2 27.1L112.8 27.1C112.6 27.1 112.5 26.9 112.4 26.7L112.3 25.4C111.4 26.3 109.7 27.4 107.5 27.4 105 27.4 103 25.7 103 22.8 103 20.2 105.2 18.2 108.8 18.2ZM75.9 13C79.7 13 82.8 16.3 82.8 20.2 82.8 24.2 79.7 27.4 75.9 27.4 72 27.4 69 24.2 69 20.2 69 16.3 72 13 75.9 13ZM75.9 26C78.9 26 81.3 23.4 81.3 20.2 81.3 17 78.9 14.4 75.9 14.4 72.9 14.4 70.5 17 70.5 20.2 70.5 23.4 72.9 26 75.9 26ZM107.7 26.1C109.8 26.1 111.6 24.8 112.2 23.9L112.2 20.2C111.8 20 110.4 19.4 108.8 19.4 106.2 19.4 104.4 20.8 104.4 22.8 104.4 24.8 105.8 26.1 107.7 26.1ZM123.2 22.2C122.8 21.7 122.1 20.4 122.1 18.8 122.1 15.5 124.4 13 128.1 13L133.8 13C134 13 134.2 13.2 134.2 13.4L134.2 13.8C134.2 14 134.1 14.2 133.9 14.2L131.4 14.4C132.1 14.7 133.5 15.9 133.5 18.8 133.5 21.8 131.4 24.5 127.9 24.5 125.8 24.5 124.6 23.7 124.1 23.3 123.8 23.4 122.4 24.1 122.4 25.7 122.4 27.3 123.7 27.7 125.1 27.7L130.1 27.7C133 27.7 135.1 29 135.1 32.1 135.1 35 132.3 37.7 128.1 37.7 123.5 37.7 121.4 34.9 121.4 32.6 121.4 30.6 122.9 29.5 123.6 29 122.9 28.9 120.9 27.9 120.9 25.9 120.9 23.6 122.8 22.4 123.2 22.2ZM132.1 18.8C132.1 15.9 130.2 14.4 127.9 14.4 125.3 14.4 123.5 16.3 123.5 18.8 123.5 21.2 125 23.1 127.9 23.1 130.5 23.1 132.1 21.2 132.1 18.8ZM128.1 36.3C131.2 36.3 133.5 34.5 133.5 32.1 133.5 30.6 132.6 29.1 130.1 29.1L125.7 29.1C125.4 29.1 123 30.1 123 32.4 123 34.3 124.8 36.3 128.1 36.3ZM147.4 13C151 13 153.6 15.6 153.6 19.3 153.6 19.8 153.6 20.6 153.1 20.6L142.1 20.6C142.3 23.6 144.4 26 147.5 26 149.3 26 150.7 25.3 151.5 24.8 151.8 24.6 152 24.5 152.1 24.8L152.5 25.2C152.6 25.4 152.5 25.6 152.3 25.8 151.7 26.5 149.5 27.4 147.4 27.4 143.2 27.4 140.6 24.2 140.6 20.2 140.6 16.3 143.2 13 147.4 13ZM152.1 19.4C152.1 16.7 150.5 14.4 147.4 14.4 144.3 14.4 142.3 16.6 142.2 19.4L152.1 19.4ZM166.8 13C170.4 13 173 15.6 173 19.3 173 19.8 173 20.6 172.5 20.6L161.6 20.6C161.7 23.6 163.8 26 166.9 26 168.7 26 170.1 25.3 171 24.8 171.3 24.6 171.4 24.5 171.6 24.8L171.9 25.2C172 25.4 172 25.6 171.8 25.8 171.1 26.5 168.9 27.4 166.8 27.4 162.6 27.4 160.1 24.2 160.1 20.2 160.1 16.3 162.6 13 166.8 13ZM171.5 19.4C171.5 16.7 169.9 14.4 166.8 14.4 163.8 14.4 161.8 16.6 161.6 19.4L171.5 19.4ZM180.3 3.5C180.3 3.3 180.5 3.1 180.8 3.1L181.3 3.1C181.6 3.1 181.8 3.3 181.8 3.5L181.8 18.9 189.1 13.5C189.3 13.4 189.5 13.3 189.6 13.3L190.6 13.3C191 13.3 191 13.8 190.7 14L183.4 19.4 191.6 26.5C191.9 26.7 191.7 27.1 191.5 27.1L190.4 27.1C190.2 27.1 190 27 189.7 26.8L181.8 20 181.8 26.6C181.8 26.9 181.7 27.1 181.3 27.1L180.7 27.1C180.5 27.1 180.3 26.9 180.3 26.6L180.3 3.5Z" stroke="#171724" fill="#171724"></path>
    <path d="M11.5 40.7C11.3 40.7 11.1 40.7 10.9 40.6 7.6 38.7 4.9 36 3 32.8 1 29.4 0 25.6 0 21.7 0 9.8 9.8 0 21.7 0 25.6 0 29.4 1 32.8 3 36 4.9 38.7 7.6 40.6 10.9 40.9 11.5 40.7 12.3 40.1 12.6 39.5 13 38.7 12.8 38.4 12.1 36.7 9.3 34.3 6.9 31.5 5.2 28.5 3.5 25.2 2.6 21.7 2.6 11.2 2.6 2.6 11.2 2.6 21.7 2.6 25.2 3.5 28.5 5.2 31.5 6.9 34.3 9.3 36.7 12.1 38.4 12.8 38.7 13 39.5 12.6 40.1 12.4 40.5 11.9 40.7 11.5 40.7ZM14 36.5C13.7 36.5 13.5 36.4 13.3 36.3 10.8 34.9 8.7 32.8 7.2 30.3 5.7 27.7 4.9 24.7 4.9 21.7 4.9 12.5 12.5 4.9 21.7 4.9 24.7 4.9 27.7 5.7 30.3 7.2 32.8 8.7 34.9 10.8 36.3 13.3 36.7 13.9 36.5 14.7 35.8 15.1 35.2 15.4 34.5 15.2 34.1 14.6 31.6 10.2 26.8 7.5 21.7 7.5 13.9 7.5 7.5 13.9 7.5 21.7 7.5 26.8 10.2 31.6 14.6 34.1 15.2 34.5 15.4 35.2 15.1 35.8 14.8 36.3 14.4 36.5 14 36.5ZM21.7 33.6C15.2 33.6 9.8 28.3 9.8 21.7 9.8 15.2 15.2 9.8 21.7 9.8 23.8 9.8 25.9 10.4 27.7 11.4 28.3 11.8 28.5 12.6 28.2 13.2 27.8 13.8 27 14 26.4 13.6 25 12.8 23.4 12.4 21.7 12.4 16.6 12.4 12.4 16.6 12.4 21.7 12.4 26.9 16.6 31.1 21.7 31.1 26.9 31.1 31.1 26.9 31.1 21.7 31.1 21 31.7 20.5 32.4 20.5 33.1 20.5 33.6 21 33.6 21.7 33.6 28.3 28.3 33.6 21.7 33.6ZM21.7 28.7C21 28.7 20.5 28.2 20.5 27.4 20.5 26.7 21 26.2 21.7 26.2 24.2 26.2 26.2 24.2 26.2 21.7 26.2 21 26.7 20.5 27.4 20.5 28.2 20.5 28.7 21 28.7 21.7 28.7 25.6 25.6 28.7 21.7 28.7Z" fill="#171724"></path>
</svg>